STARTFONT 2.1
FONT -Monotype-Plantin-Bold-R-Normal--14-140-75-75-P-84-iso8859-5
SIZE 14 75 75
FONTBOUNDINGBOX 19 17 -1 -3

STARTPROPERTIES 24
FOUNDRY "Monotype"
FAMILY_NAME "Plantin"
WEIGHT_NAME "Bold"
SLANT "R"
SETWIDTH_NAME "Normal"
ADD_STYLE_NAME ""
PIXEL_SIZE 14
POINT_SIZE 140
RESOLUTION_X 75
RESOLUTION_Y 75
SPACING "P"
AVERAGE_WIDTH 84
CHARSET_REGISTRY "iso8859"
CHARSET_ENCODING "5"
FACE_NAME "Plantin Bold ISO Latin Cyrillic"
_DEC_DEVICE_FONTNAMES "PS=plantin-b-latcyrillic"
COPYRIGHT "Copyright (c) 1994 Monotype Typography Ltd."
CAP_HEIGHT 12
X_HEIGHT 8
WEIGHT 10
QUAD_WIDTH 10
DEFAULT_CHAR 160
FONT_DESCENT 4
FONT_ASCENT 14
ENDPROPERTIES

CHARS 191

STARTCHAR space
ENCODING 32
SWIDTH 250 0
DWIDTH 4 0
BBX 0 0 0 0
BITMAP
ENDCHAR

STARTCHAR exclam
ENCODING 33
SWIDTH 344 0
DWIDTH 5 0
BBX 2 11 2 0
BITMAP
C0
C0
C0
C0
C0
C0
80
00
00
C0
C0
ENDCHAR

STARTCHAR quotedbl
ENCODING 34
SWIDTH 552 0
DWIDTH 8 0
BBX 6 5 1 6
BITMAP
CC
CC
CC
CC
44
ENDCHAR

STARTCHAR numbersign
ENCODING 35
SWIDTH 500 0
DWIDTH 8 0
BBX 8 11 0 0
BITMAP
12
12
12
7F
24
24
24
FE
48
48
48
ENDCHAR

STARTCHAR dollar
ENCODING 36
SWIDTH 521 0
DWIDTH 8 0
BBX 7 12 1 -1
BITMAP
10
7C
D6
D0
F0
78
1C
1E
16
D6
7C
10
ENDCHAR

STARTCHAR percent
ENCODING 37
SWIDTH 927 0
DWIDTH 14 0
BBX 13 11 1 0
BITMAP
7080
D880
D900
D900
DA00
7270
04D8
04D8
08D8
08D8
1070
ENDCHAR

STARTCHAR ampersand
ENCODING 38
SWIDTH 781 0
DWIDTH 12 0
BBX 11 11 1 0
BITMAP
1C00
3600
3200
3200
1C00
18E0
2C40
4680
C300
E780
79E0
ENDCHAR

STARTCHAR quoteright
ENCODING 39
SWIDTH 344 0
DWIDTH 5 0
BBX 3 4 1 7
BITMAP
60
60
20
C0
ENDCHAR

STARTCHAR parenleft
ENCODING 40
SWIDTH 417 0
DWIDTH 6 0
BBX 5 14 1 -3
BITMAP
18
20
60
60
C0
C0
C0
C0
C0
C0
60
60
20
18
ENDCHAR

STARTCHAR parenright
ENCODING 41
SWIDTH 417 0
DWIDTH 6 0
BBX 5 14 1 -3
BITMAP
C0
20
30
30
18
18
18
18
18
18
30
30
20
C0
ENDCHAR

STARTCHAR asterisk
ENCODING 42
SWIDTH 510 0
DWIDTH 8 0
BBX 6 6 1 5
BITMAP
48
30
FC
30
30
48
ENDCHAR

STARTCHAR plus
ENCODING 43
SWIDTH 667 0
DWIDTH 10 0
BBX 7 7 2 2
BITMAP
10
10
10
FE
10
10
10
ENDCHAR

STARTCHAR comma
ENCODING 44
SWIDTH 344 0
DWIDTH 5 0
BBX 2 5 2 -3
BITMAP
C0
C0
40
40
80
ENDCHAR

STARTCHAR minus
ENCODING 45
SWIDTH 667 0
DWIDTH 10 0
BBX 8 1 1 5
BITMAP
FF
ENDCHAR

STARTCHAR period
ENCODING 46
SWIDTH 344 0
DWIDTH 5 0
BBX 2 2 2 0
BITMAP
C0
C0
ENDCHAR

STARTCHAR slash
ENCODING 47
SWIDTH 281 0
DWIDTH 4 0
BBX 4 11 0 0
BITMAP
10
10
30
30
20
60
60
40
C0
C0
80
ENDCHAR

STARTCHAR zero
ENCODING 48
SWIDTH 521 0
DWIDTH 8 0
BBX 7 11 1 0
BITMAP
38
6C
C6
C6
C6
C6
C6
C6
C6
6C
38
ENDCHAR

STARTCHAR one
ENCODING 49
SWIDTH 521 0
DWIDTH 8 0
BBX 4 11 2 0
BITMAP
20
E0
60
60
60
60
60
60
60
60
F0
ENDCHAR

STARTCHAR two
ENCODING 50
SWIDTH 521 0
DWIDTH 8 0
BBX 8 11 0 0
BITMAP
3C
4E
06
06
06
0C
0C
18
21
7F
FE
ENDCHAR

STARTCHAR three
ENCODING 51
SWIDTH 521 0
DWIDTH 8 0
BBX 6 11 1 0
BITMAP
78
9C
0C
0C
38
58
0C
0C
0C
98
70
ENDCHAR

STARTCHAR four
ENCODING 52
SWIDTH 521 0
DWIDTH 8 0
BBX 7 11 1 0
BITMAP
04
0C
1C
2C
2C
4C
FE
FE
0C
0C
0C
ENDCHAR

STARTCHAR five
ENCODING 53
SWIDTH 521 0
DWIDTH 8 0
BBX 7 11 1 0
BITMAP
3E
3C
20
60
78
9C
0C
0C
0C
98
70
ENDCHAR

STARTCHAR six
ENCODING 54
SWIDTH 521 0
DWIDTH 8 0
BBX 7 11 1 0
BITMAP
06
18
30
60
DC
EE
C6
C6
C6
64
38
ENDCHAR

STARTCHAR seven
ENCODING 55
SWIDTH 521 0
DWIDTH 8 0
BBX 7 11 1 0
BITMAP
7E
FE
82
06
04
0C
08
18
10
30
20
ENDCHAR

STARTCHAR eight
ENCODING 56
SWIDTH 521 0
DWIDTH 8 0
BBX 6 11 1 0
BITMAP
78
CC
C4
C4
E4
78
DC
8C
8C
CC
78
ENDCHAR

STARTCHAR nine
ENCODING 57
SWIDTH 521 0
DWIDTH 8 0
BBX 7 11 1 0
BITMAP
38
4C
C6
C6
C6
EE
76
0C
18
30
C0
ENDCHAR

STARTCHAR colon
ENCODING 58
SWIDTH 344 0
DWIDTH 5 0
BBX 2 7 2 0
BITMAP
C0
C0
00
00
00
C0
C0
ENDCHAR

STARTCHAR semicolon
ENCODING 59
SWIDTH 344 0
DWIDTH 5 0
BBX 2 10 2 -3
BITMAP
C0
C0
00
00
00
C0
C0
40
40
80
ENDCHAR

STARTCHAR less
ENCODING 60
SWIDTH 667 0
DWIDTH 10 0
BBX 8 7 1 2
BITMAP
01
0F
3C
E0
3C
0F
01
ENDCHAR

STARTCHAR equal
ENCODING 61
SWIDTH 667 0
DWIDTH 10 0
BBX 8 5 1 3
BITMAP
FF
00
00
00
FF
ENDCHAR

STARTCHAR greater
ENCODING 62
SWIDTH 667 0
DWIDTH 10 0
BBX 8 7 1 2
BITMAP
80
F0
3C
07
3C
F0
80
ENDCHAR

STARTCHAR question
ENCODING 63
SWIDTH 458 0
DWIDTH 7 0
BBX 6 11 1 0
BITMAP
78
CC
0C
0C
3C
38
20
00
00
30
30
ENDCHAR

STARTCHAR at
ENCODING 64
SWIDTH 927 0
DWIDTH 14 0
BBX 13 14 1 -3
BITMAP
07C0
1830
2010
4348
46C8
8CC8
8C88
9988
9990
5AA8
5CC8
2010
1860
0780
ENDCHAR

STARTCHAR A
ENCODING 65
SWIDTH 781 0
DWIDTH 12 0
BBX 12 11 0 0
BITMAP
0400
0600
0600
0B00
0B00
1180
1F80
20C0
20C0
4060
E0F0
ENDCHAR

STARTCHAR B
ENCODING 66
SWIDTH 781 0
DWIDTH 12 0
BBX 10 11 1 0
BITMAP
FF80
61C0
60C0
60C0
6180
7F00
6180
60C0
60C0
61C0
FF80
ENDCHAR

STARTCHAR C
ENCODING 67
SWIDTH 802 0
DWIDTH 12 0
BBX 10 11 1 0
BITMAP
0FC0
30C0
6040
C000
C000
C000
C000
C000
6040
30C0
0F80
ENDCHAR

STARTCHAR D
ENCODING 68
SWIDTH 875 0
DWIDTH 13 0
BBX 11 11 1 0
BITMAP
FF00
61C0
60C0
6060
6060
6060
6060
6060
60C0
61C0
FF00
ENDCHAR

STARTCHAR E
ENCODING 69
SWIDTH 750 0
DWIDTH 11 0
BBX 10 11 1 0
BITMAP
FF80
60C0
6000
6000
6100
7F00
6100
6000
6000
60C0
FF80
ENDCHAR

STARTCHAR F
ENCODING 70
SWIDTH 687 0
DWIDTH 10 0
BBX 9 11 1 0
BITMAP
FF00
6180
6000
6000
6200
7E00
6200
6000
6000
6000
F000
ENDCHAR

STARTCHAR G
ENCODING 71
SWIDTH 844 0
DWIDTH 13 0
BBX 12 11 1 0
BITMAP
0FE0
3060
6020
C000
C000
C000
C0F0
C060
6060
3060
0FC0
ENDCHAR

STARTCHAR H
ENCODING 72
SWIDTH 875 0
DWIDTH 13 0
BBX 11 11 1 0
BITMAP
F1E0
60C0
60C0
60C0
60C0
7FC0
60C0
60C0
60C0
60C0
F1E0
ENDCHAR

STARTCHAR I
ENCODING 73
SWIDTH 406 0
DWIDTH 6 0
BBX 4 11 1 0
BITMAP
F0
60
60
60
60
60
60
60
60
60
F0
ENDCHAR

STARTCHAR J
ENCODING 74
SWIDTH 406 0
DWIDTH 6 0
BBX 5 14 0 -3
BITMAP
78
30
30
30
30
30
30
30
30
30
30
30
B0
E0
ENDCHAR

STARTCHAR K
ENCODING 75
SWIDTH 781 0
DWIDTH 12 0
BBX 11 11 1 0
BITMAP
F3C0
6180
6100
6200
6400
7C00
6600
6300
6180
60C0
F0E0
ENDCHAR

STARTCHAR L
ENCODING 76
SWIDTH 687 0
DWIDTH 10 0
BBX 9 11 1 0
BITMAP
F000
6000
6000
6000
6000
6000
6000
6000
6000
6180
FF00
ENDCHAR

STARTCHAR M
ENCODING 77
SWIDTH 1010 0
DWIDTH 15 0
BBX 15 11 0 0
BITMAP
3838
1830
1830
1C70
2C58
2C58
2698
468C
430C
430C
E31E
ENDCHAR

STARTCHAR N
ENCODING 78
SWIDTH 792 0
DWIDTH 12 0
BBX 10 11 1 0
BITMAP
E1C0
6080
7080
5880
4C80
4C80
4680
4380
4180
4180
E080
ENDCHAR

STARTCHAR O
ENCODING 79
SWIDTH 875 0
DWIDTH 13 0
BBX 11 11 1 0
BITMAP
0E00
3180
60C0
C060
C060
C060
C060
C060
60C0
3180
0E00
ENDCHAR

STARTCHAR P
ENCODING 80
SWIDTH 729 0
DWIDTH 11 0
BBX 9 11 1 0
BITMAP
FE00
6300
6180
6180
6180
6300
6E00
6000
6000
6000
F000
ENDCHAR

STARTCHAR Q
ENCODING 81
SWIDTH 865 0
DWIDTH 13 0
BBX 11 14 1 -3
BITMAP
0E00
3180
60C0
C060
C060
C060
C060
C060
60C0
3180
1E00
0C00
0700
01E0
ENDCHAR

STARTCHAR R
ENCODING 82
SWIDTH 771 0
DWIDTH 12 0
BBX 11 11 1 0
BITMAP
FF00
6180
60C0
60C0
6180
7F00
6600
6300
6180
60C0
F0E0
ENDCHAR

STARTCHAR S
ENCODING 83
SWIDTH 656 0
DWIDTH 10 0
BBX 8 11 1 0
BITMAP
7E
E3
C1
E0
78
3E
0F
03
83
C7
7E
ENDCHAR

STARTCHAR T
ENCODING 84
SWIDTH 740 0
DWIDTH 12 0
BBX 10 11 1 0
BITMAP
7F80
CCC0
0C00
0C00
0C00
0C00
0C00
0C00
0C00
0C00
1E00
ENDCHAR

STARTCHAR U
ENCODING 85
SWIDTH 833 0
DWIDTH 13 0
BBX 11 11 1 0
BITMAP
F0E0
6040
6040
6040
6040
6040
6040
6040
6040
3080
1F00
ENDCHAR

STARTCHAR V
ENCODING 86
SWIDTH 729 0
DWIDTH 11 0
BBX 11 11 0 0
BITMAP
F1E0
60C0
6080
3080
3100
1900
1900
0E00
0E00
0C00
0400
ENDCHAR

STARTCHAR W
ENCODING 87
SWIDTH 1031 0
DWIDTH 15 0
BBX 15 11 0 0
BITMAP
F3CE
6184
6184
3188
3188
1BD0
1AD0
0E70
0C60
0C60
0420
ENDCHAR

STARTCHAR X
ENCODING 88
SWIDTH 781 0
DWIDTH 12 0
BBX 12 11 0 0
BITMAP
F0F0
6060
3040
1880
0D00
0600
0E00
1300
2180
60C0
F1E0
ENDCHAR

STARTCHAR Y
ENCODING 89
SWIDTH 729 0
DWIDTH 10 0
BBX 10 11 0 0
BITMAP
F1C0
6080
3100
3100
1A00
0C00
0C00
0C00
0C00
0C00
1E00
ENDCHAR

STARTCHAR Z
ENCODING 90
SWIDTH 687 0
DWIDTH 11 0
BBX 9 11 1 0
BITMAP
7F80
C300
0600
0600
0C00
0C00
1800
3000
3000
6180
FF00
ENDCHAR

STARTCHAR bracketleft
ENCODING 91
SWIDTH 396 0
DWIDTH 6 0
BBX 4 14 1 -3
BITMAP
F0
C0
C0
C0
C0
C0
C0
C0
C0
C0
C0
C0
C0
F0
ENDCHAR

STARTCHAR backslash
ENCODING 92
SWIDTH 281 0
DWIDTH 4 0
BBX 4 11 0 0
BITMAP
80
80
C0
40
40
60
20
20
30
10
10
ENDCHAR

STARTCHAR bracketright
ENCODING 93
SWIDTH 396 0
DWIDTH 6 0
BBX 4 14 0 -3
BITMAP
F0
30
30
30
30
30
30
30
30
30
30
30
30
F0
ENDCHAR

STARTCHAR asciicircum
ENCODING 94
SWIDTH 583 0
DWIDTH 9 0
BBX 7 6 1 5
BITMAP
10
10
38
28
44
C6
ENDCHAR

STARTCHAR underscore
ENCODING 95
SWIDTH 500 0
DWIDTH 8 0
BBX 8 1 0 -3
BITMAP
FF
ENDCHAR

STARTCHAR quoteleft
ENCODING 96
SWIDTH 344 0
DWIDTH 5 0
BBX 3 4 1 7
BITMAP
60
80
C0
C0
ENDCHAR

STARTCHAR a
ENCODING 97
SWIDTH 562 0
DWIDTH 8 0
BBX 7 7 1 0
BITMAP
78
CC
0C
7C
CC
CC
76
ENDCHAR

STARTCHAR b
ENCODING 98
SWIDTH 604 0
DWIDTH 9 0
BBX 8 11 0 0
BITMAP
20
E0
60
60
6E
77
63
63
63
66
3C
ENDCHAR

STARTCHAR c
ENCODING 99
SWIDTH 521 0
DWIDTH 8 0
BBX 7 7 1 0
BITMAP
3C
66
C2
C0
C0
E6
7C
ENDCHAR

STARTCHAR d
ENCODING 100
SWIDTH 615 0
DWIDTH 9 0
BBX 8 11 1 0
BITMAP
02
0E
06
06
36
6E
C6
C6
C6
EE
77
ENDCHAR

STARTCHAR e
ENCODING 101
SWIDTH 521 0
DWIDTH 8 0
BBX 6 7 1 0
BITMAP
38
6C
CC
FC
C0
E4
78
ENDCHAR

STARTCHAR f
ENCODING 102
SWIDTH 354 0
DWIDTH 5 0
BBX 7 11 0 0
BITMAP
3C
66
60
60
F0
60
60
60
60
60
F0
ENDCHAR

STARTCHAR g
ENCODING 103
SWIDTH 552 0
DWIDTH 8 0
BBX 7 10 1 -3
BITMAP
7A
CC
CC
CC
78
C0
FC
7E
82
7C
ENDCHAR

STARTCHAR h
ENCODING 104
SWIDTH 625 0
DWIDTH 9 0
BBX 9 11 0 0
BITMAP
2000
E000
6000
6000
6E00
7700
6300
6300
6300
6300
F780
ENDCHAR

STARTCHAR i
ENCODING 105
SWIDTH 333 0
DWIDTH 5 0
BBX 4 11 1 0
BITMAP
60
60
00
00
20
E0
60
60
60
60
F0
ENDCHAR

STARTCHAR j
ENCODING 106
SWIDTH 313 0
DWIDTH 5 0
BBX 3 14 1 -3
BITMAP
60
60
00
00
20
E0
60
60
60
60
60
60
40
80
ENDCHAR

STARTCHAR k
ENCODING 107
SWIDTH 552 0
DWIDTH 8 0
BBX 8 11 0 0
BITMAP
20
E0
60
60
6E
64
68
78
6C
66
F3
ENDCHAR

STARTCHAR l
ENCODING 108
SWIDTH 312 0
DWIDTH 5 0
BBX 4 11 1 0
BITMAP
20
E0
60
60
60
60
60
60
60
60
F0
ENDCHAR

STARTCHAR m
ENCODING 109
SWIDTH 979 0
DWIDTH 14 0
BBX 14 7 0 0
BITMAP
2E70
F398
6318
6318
6318
6318
F7BC
ENDCHAR

STARTCHAR n
ENCODING 110
SWIDTH 625 0
DWIDTH 9 0
BBX 9 7 0 0
BITMAP
2E00
F300
6300
6300
6300
6300
F780
ENDCHAR

STARTCHAR o
ENCODING 111
SWIDTH 573 0
DWIDTH 9 0
BBX 7 7 1 0
BITMAP
38
6C
C6
C6
C6
6C
38
ENDCHAR

STARTCHAR p
ENCODING 112
SWIDTH 615 0
DWIDTH 9 0
BBX 8 10 0 -3
BITMAP
2E
F7
63
63
63
76
6C
60
60
F0
ENDCHAR

STARTCHAR q
ENCODING 113
SWIDTH 615 0
DWIDTH 9 0
BBX 8 10 1 -3
BITMAP
3A
6E
C6
C6
C6
EE
76
06
06
0F
ENDCHAR

STARTCHAR r
ENCODING 114
SWIDTH 479 0
DWIDTH 7 0
BBX 6 7 1 0
BITMAP
2C
F4
60
60
60
60
F0
ENDCHAR

STARTCHAR s
ENCODING 115
SWIDTH 458 0
DWIDTH 8 0
BBX 6 7 1 0
BITMAP
7C
C4
E0
78
1C
8C
F8
ENDCHAR

STARTCHAR t
ENCODING 116
SWIDTH 375 0
DWIDTH 5 0
BBX 5 9 0 0
BITMAP
20
60
F8
60
60
60
60
60
38
ENDCHAR

STARTCHAR u
ENCODING 117
SWIDTH 625 0
DWIDTH 9 0
BBX 9 7 0 0
BITMAP
E700
6300
6300
6300
6300
6700
3B80
ENDCHAR

STARTCHAR v
ENCODING 118
SWIDTH 542 0
DWIDTH 8 0
BBX 8 7 0 0
BITMAP
F7
62
34
34
18
18
08
ENDCHAR

STARTCHAR w
ENCODING 119
SWIDTH 771 0
DWIDTH 12 0
BBX 12 7 0 0
BITMAP
F770
6620
3340
3740
1980
1980
0900
ENDCHAR

STARTCHAR x
ENCODING 120
SWIDTH 552 0
DWIDTH 8 0
BBX 8 7 0 0
BITMAP
F7
62
34
18
2C
46
EF
ENDCHAR

STARTCHAR y
ENCODING 121
SWIDTH 542 0
DWIDTH 8 0
BBX 8 10 0 -3
BITMAP
F7
62
62
34
34
18
18
08
D0
60
ENDCHAR

STARTCHAR z
ENCODING 122
SWIDTH 510 0
DWIDTH 8 0
BBX 6 7 1 0
BITMAP
FC
8C
18
30
60
C4
FC
ENDCHAR

STARTCHAR braceleft
ENCODING 123
SWIDTH 396 0
DWIDTH 6 0
BBX 4 14 1 -3
BITMAP
30
60
60
60
60
60
C0
C0
60
60
60
60
60
30
ENDCHAR

STARTCHAR bar
ENCODING 124
SWIDTH 219 0
DWIDTH 3 0
BBX 1 14 1 -3
BITMAP
80
80
80
80
80
80
80
80
80
80
80
80
80
80
ENDCHAR

STARTCHAR braceright
ENCODING 125
SWIDTH 396 0
DWIDTH 6 0
BBX 4 14 1 -3
BITMAP
C0
60
60
60
60
60
30
30
60
60
60
60
60
C0
ENDCHAR

STARTCHAR asciitilde
ENCODING 126
SWIDTH 521 0
DWIDTH 8 0
BBX 8 2 0 4
BITMAP
79
9E
ENDCHAR

STARTCHAR space
ENCODING 160
SWIDTH 250 0
DWIDTH 5 0
BBX 0 0 0 0
BITMAP
ENDCHAR

STARTCHAR afii10023
ENCODING 161
SWIDTH 750 0
DWIDTH 11 0
BBX 10 14 1 0
BITMAP
3300
3300
0000
FF80
60C0
6000
6000
6100
7F00
6100
6000
6000
60C0
FF80
ENDCHAR

STARTCHAR afii10051
ENCODING 162
SWIDTH 850 0
DWIDTH 13 0
BBX 13 11 0 0
BITMAP
7F80
CCC0
0C00
0C00
0DE0
0E30
0C18
0C18
0C18
0C30
1EE0
ENDCHAR

STARTCHAR afii10052
ENCODING 163
SWIDTH 646 0
DWIDTH 10 0
BBX 9 14 1 0
BITMAP
0C00
1800
0000
FF80
6180
6080
6000
6000
6000
6000
6000
6000
6000
F000
ENDCHAR

STARTCHAR afii10053
ENCODING 164
SWIDTH 813 0
DWIDTH 12 0
BBX 10 11 1 0
BITMAP
0F80
30C0
6040
C000
C000
FF00
C000
C000
6040
30C0
0F80
ENDCHAR

STARTCHAR afii10054
ENCODING 165
SWIDTH 656 0
DWIDTH 10 0
BBX 8 11 1 0
BITMAP
7E
E3
C1
E0
78
3E
0F
03
83
C7
7E
ENDCHAR

STARTCHAR afii10055
ENCODING 166
SWIDTH 406 0
DWIDTH 6 0
BBX 4 11 1 0
BITMAP
F0
60
60
60
60
60
60
60
60
60
F0
ENDCHAR

STARTCHAR afii10056
ENCODING 167
SWIDTH 406 0
DWIDTH 6 0
BBX 6 14 0 0
BITMAP
CC
CC
00
78
30
30
30
30
30
30
30
30
30
78
ENDCHAR

STARTCHAR afii10057
ENCODING 168
SWIDTH 406 0
DWIDTH 6 0
BBX 5 14 0 -3
BITMAP
78
30
30
30
30
30
30
30
30
30
30
30
B0
E0
ENDCHAR

STARTCHAR afii10058
ENCODING 169
SWIDTH 1086 0
DWIDTH 16 0
BBX 15 11 0 0
BITMAP
3FC0
1180
1180
1180
1180
11F8
118C
1186
1186
B18C
E3F8
ENDCHAR

STARTCHAR afii10059
ENCODING 170
SWIDTH 1095 0
DWIDTH 17 0
BBX 15 11 1 0
BITMAP
F3C0
6180
6180
6180
6180
7FF8
618C
6186
6186
618C
F3F8
ENDCHAR

STARTCHAR afii10060
ENCODING 171
SWIDTH 854 0
DWIDTH 13 0
BBX 13 11 0 0
BITMAP
7F80
CCC0
0C00
0C00
0DC0
0E20
0C30
0C30
0C30
0C30
1E78
ENDCHAR

STARTCHAR afii10061
ENCODING 172
SWIDTH 781 0
DWIDTH 12 0
BBX 11 14 1 0
BITMAP
0600
0C00
0000
F180
62C0
6200
6200
6400
7C00
6600
6300
6180
60C0
F0E0
ENDCHAR

STARTCHAR hyphen
ENCODING 173
SWIDTH 458 0
DWIDTH 7 0
BBX 5 1 1 3
BITMAP
F8
ENDCHAR

STARTCHAR afii10062
ENCODING 174
SWIDTH 750 0
DWIDTH 11 0
BBX 10 14 1 0
BITMAP
1B00
0E00
0000
F1C0
6080
6080
3100
3100
1900
1E00
0C00
0C00
C800
7000
ENDCHAR

STARTCHAR afii10145
ENCODING 175
SWIDTH 854 0
DWIDTH 13 0
BBX 11 13 1 -2
BITMAP
F1E0
60C0
60C0
60C0
60C0
60C0
60C0
60C0
60C0
60C0
FFE0
0C00
0C00
ENDCHAR

STARTCHAR afii10017
ENCODING 176
SWIDTH 781 0
DWIDTH 12 0
BBX 12 11 0 0
BITMAP
0400
0600
0600
0B00
0B00
1180
1F80
20C0
20C0
4060
E0F0
ENDCHAR

STARTCHAR afii10018
ENCODING 177
SWIDTH 740 0
DWIDTH 11 0
BBX 9 11 1 0
BITMAP
FF00
6300
6100
6000
6000
7E00
6300
6180
6180
6300
FE00
ENDCHAR

STARTCHAR afii10019
ENCODING 178
SWIDTH 781 0
DWIDTH 12 0
BBX 10 11 1 0
BITMAP
FF80
61C0
60C0
60C0
6180
7F00
6180
60C0
60C0
61C0
FF80
ENDCHAR

STARTCHAR afii10020
ENCODING 179
SWIDTH 646 0
DWIDTH 10 0
BBX 9 11 1 0
BITMAP
FF80
6180
6080
6000
6000
6000
6000
6000
6000
6000
F000
ENDCHAR

STARTCHAR afii10021
ENCODING 180
SWIDTH 781 0
DWIDTH 12 0
BBX 10 13 1 -2
BITMAP
7FC0
2180
2180
2180
2180
4180
4180
4180
4180
4180
FFC0
C0C0
8040
ENDCHAR

STARTCHAR afii10022
ENCODING 181
SWIDTH 750 0
DWIDTH 11 0
BBX 10 11 1 0
BITMAP
FF80
60C0
6000
6000
6100
7F00
6100
6000
6000
60C0
FF80
ENDCHAR

STARTCHAR afii10024
ENCODING 182
SWIDTH 1094 0
DWIDTH 16 0
BBX 14 11 1 0
BITMAP
E79C
B334
3330
3330
1B60
1FE0
1B60
3330
3330
6318
E79C
ENDCHAR

STARTCHAR afii10025
ENCODING 183
SWIDTH 750 0
DWIDTH 11 0
BBX 9 11 1 0
BITMAP
7E00
C100
8180
0180
0300
3C00
0300
0180
8180
C300
7E00
ENDCHAR

STARTCHAR afii10026
ENCODING 184
SWIDTH 854 0
DWIDTH 13 0
BBX 11 11 1 0
BITMAP
F1E0
60C0
60C0
61C0
62C0
64C0
68C0
70C0
60C0
60C0
F1E0
ENDCHAR

STARTCHAR afii10027
ENCODING 185
SWIDTH 854 0
DWIDTH 13 0
BBX 11 14 1 0
BITMAP
1B00
0E00
0000
F1E0
60C0
60C0
61C0
62C0
64C0
68C0
70C0
60C0
60C0
F1E0
ENDCHAR

STARTCHAR afii10028
ENCODING 186
SWIDTH 781 0
DWIDTH 12 0
BBX 11 11 1 0
BITMAP
F180
62C0
6200
6200
6400
7C00
6600
6300
6180
60C0
F0E0
ENDCHAR

STARTCHAR afii10029
ENCODING 187
SWIDTH 833 0
DWIDTH 11 0
BBX 10 11 0 0
BITMAP
3FC0
1180
1180
1180
1180
1180
1180
1180
1180
B180
E3C0
ENDCHAR

STARTCHAR afii10030
ENCODING 188
SWIDTH 1010 0
DWIDTH 15 0
BBX 15 11 0 0
BITMAP
3838
1830
1830
1C70
2C58
2C58
2698
468C
430C
430C
E31E
ENDCHAR

STARTCHAR afii10031
ENCODING 189
SWIDTH 875 0
DWIDTH 13 0
BBX 11 11 1 0
BITMAP
F1E0
60C0
60C0
60C0
60C0
7FC0
60C0
60C0
60C0
60C0
F1E0
ENDCHAR

STARTCHAR afii10032
ENCODING 190
SWIDTH 875 0
DWIDTH 13 0
BBX 11 11 1 0
BITMAP
0E00
3180
60C0
C060
C060
C060
C060
C060
60C0
3180
0E00
ENDCHAR

STARTCHAR afii10033
ENCODING 191
SWIDTH 854 0
DWIDTH 13 0
BBX 11 11 1 0
BITMAP
FFE0
60C0
60C0
60C0
60C0
60C0
60C0
60C0
60C0
60C0
F1E0
ENDCHAR

STARTCHAR afii10034
ENCODING 192
SWIDTH 729 0
DWIDTH 11 0
BBX 9 11 1 0
BITMAP
FE00
6300
6180
6180
6180
6300
6E00
6000
6000
6000
F000
ENDCHAR

STARTCHAR afii10035
ENCODING 193
SWIDTH 802 0
DWIDTH 12 0
BBX 10 11 1 0
BITMAP
0FC0
30C0
6040
C000
C000
C000
C000
C000
6040
30C0
0F80
ENDCHAR

STARTCHAR afii10036
ENCODING 194
SWIDTH 740 0
DWIDTH 12 0
BBX 10 11 1 0
BITMAP
7F80
CCC0
0C00
0C00
0C00
0C00
0C00
0C00
0C00
0C00
1E00
ENDCHAR

STARTCHAR afii10037
ENCODING 195
SWIDTH 750 0
DWIDTH 11 0
BBX 10 11 1 0
BITMAP
F1C0
6080
6080
3100
3100
1900
1E00
0C00
0C00
C800
7000
ENDCHAR

STARTCHAR afii10038
ENCODING 196
SWIDTH 974 0
DWIDTH 14 0
BBX 14 11 0 0
BITMAP
0780
0300
3FF0
6318
C30C
C30C
C30C
6318
3FF0
0300
0780
ENDCHAR

STARTCHAR afii10039
ENCODING 197
SWIDTH 781 0
DWIDTH 12 0
BBX 12 11 0 0
BITMAP
F0F0
6060
3040
1880
0D00
0600
0E00
1300
2180
60C0
F1E0
ENDCHAR

STARTCHAR afii10040
ENCODING 198
SWIDTH 854 0
DWIDTH 13 0
BBX 11 13 1 -2
BITMAP
F1E0
60C0
60C0
60C0
60C0
60C0
60C0
60C0
60C0
60C0
FFE0
0060
0020
ENDCHAR

STARTCHAR afii10041
ENCODING 199
SWIDTH 854 0
DWIDTH 13 0
BBX 11 11 1 0
BITMAP
F1E0
60C0
60C0
60C0
60C0
60C0
31C0
1EC0
00C0
00C0
01E0
ENDCHAR

STARTCHAR afii10042
ENCODING 200
SWIDTH 1125 0
DWIDTH 16 0
BBX 14 11 1 0
BITMAP
F7BC
6318
6318
6318
6318
6318
6318
6318
6318
6318
FFFC
ENDCHAR

STARTCHAR afii10043
ENCODING 201
SWIDTH 1125 0
DWIDTH 16 0
BBX 14 13 1 -2
BITMAP
F7BC
6318
6318
6318
6318
6318
6318
6318
6318
6318
FFFC
000C
0004
ENDCHAR

STARTCHAR afii10044
ENCODING 202
SWIDTH 832 0
DWIDTH 13 0
BBX 12 11 0 0
BITMAP
7E00
8C00
0C00
0C00
0C00
0FC0
0C60
0C30
0C30
0C60
1FC0
ENDCHAR

STARTCHAR afii10045
ENCODING 203
SWIDTH 1125 0
DWIDTH 16 0
BBX 14 11 1 0
BITMAP
F03C
6018
6018
6018
6018
7E18
6318
6198
6198
6318
FE3C
ENDCHAR

STARTCHAR afii10046
ENCODING 204
SWIDTH 721 0
DWIDTH 11 0
BBX 9 11 1 0
BITMAP
F000
6000
6000
6000
6000
7E00
6300
6180
6180
6300
FE00
ENDCHAR

STARTCHAR afii10047
ENCODING 205
SWIDTH 802 0
DWIDTH 12 0
BBX 10 11 1 0
BITMAP
7C00
C300
8180
00C0
00C0
3FC0
00C0
00C0
8180
C300
7C00
ENDCHAR

STARTCHAR afii10048
ENCODING 206
SWIDTH 1219 0
DWIDTH 18 0
BBX 16 11 1 0
BITMAP
F070
618C
6306
6603
6603
7E03
6603
6603
6306
618C
F070
ENDCHAR

STARTCHAR afii10049
ENCODING 207
SWIDTH 802 0
DWIDTH 12 0
BBX 11 11 0 0
BITMAP
1FE0
30C0
60C0
60C0
30C0
1FC0
0CC0
18C0
30C0
60C0
E1E0
ENDCHAR

STARTCHAR afii10065
ENCODING 208
SWIDTH 563 0
DWIDTH 8 0
BBX 7 7 1 0
BITMAP
78
CC
0C
7C
CC
CC
76
ENDCHAR

STARTCHAR afii10066
ENCODING 209
SWIDTH 583 0
DWIDTH 9 0
BBX 7 11 1 0
BITMAP
02
1C
70
40
98
A4
E6
E6
E6
64
38
ENDCHAR

STARTCHAR afii10067
ENCODING 210
SWIDTH 573 0
DWIDTH 9 0
BBX 8 7 0 0
BITMAP
FE
63
63
7E
63
63
FE
ENDCHAR

STARTCHAR afii10068
ENCODING 211
SWIDTH 542 0
DWIDTH 8 0
BBX 7 7 0 0
BITMAP
FE
66
62
60
60
60
F0
ENDCHAR

STARTCHAR afii10069
ENCODING 212
SWIDTH 565 0
DWIDTH 8 0
BBX 8 9 0 -2
BITMAP
7F
26
26
46
46
46
FF
C3
81
ENDCHAR

STARTCHAR afii10070
ENCODING 213
SWIDTH 521 0
DWIDTH 8 0
BBX 6 7 1 0
BITMAP
38
6C
CC
FC
C0
E4
78
ENDCHAR

STARTCHAR afii10072
ENCODING 214
SWIDTH 1021 0
DWIDTH 14 0
BBX 14 7 0 0
BITMAP
C78C
A314
1320
1FE0
3330
6318
E79C
ENDCHAR

STARTCHAR afii10073
ENCODING 215
SWIDTH 521 0
DWIDTH 8 0
BBX 6 7 1 0
BITMAP
78
8C
0C
38
0C
8C
78
ENDCHAR

STARTCHAR afii10074
ENCODING 216
SWIDTH 625 0
DWIDTH 9 0
BBX 9 7 0 0
BITMAP
F780
6300
6700
6B00
7300
6300
F780
ENDCHAR

STARTCHAR afii10075
ENCODING 217
SWIDTH 625 0
DWIDTH 9 0
BBX 9 10 0 0
BITMAP
3600
1C00
0000
F780
6300
6700
6B00
7300
6300
F780
ENDCHAR

STARTCHAR afii10076
ENCODING 218
SWIDTH 604 0
DWIDTH 9 0
BBX 8 7 0 0
BITMAP
F3
65
64
78
6C
66
F3
ENDCHAR

STARTCHAR afii10077
ENCODING 219
SWIDTH 573 0
DWIDTH 8 0
BBX 8 7 0 0
BITMAP
7F
26
26
26
26
A6
CF
ENDCHAR

STARTCHAR afii10078
ENCODING 220
SWIDTH 781 0
DWIDTH 11 0
BBX 11 7 0 0
BITMAP
F0E0
71C0
59C0
5AC0
5AC0
4CC0
EDE0
ENDCHAR

STARTCHAR afii10079
ENCODING 221
SWIDTH 604 0
DWIDTH 9 0
BBX 9 7 0 0
BITMAP
F780
6300
6300
7F00
6300
6300
F780
ENDCHAR

STARTCHAR afii10080
ENCODING 222
SWIDTH 573 0
DWIDTH 9 0
BBX 7 7 1 0
BITMAP
38
6C
C6
C6
C6
6C
38
ENDCHAR

STARTCHAR afii10081
ENCODING 223
SWIDTH 615 0
DWIDTH 9 0
BBX 9 7 0 0
BITMAP
FF80
6300
6300
6300
6300
6300
F780
ENDCHAR

STARTCHAR afii10082
ENCODING 224
SWIDTH 615 0
DWIDTH 9 0
BBX 8 10 0 -3
BITMAP
2E
F7
63
63
63
76
6C
60
60
F0
ENDCHAR

STARTCHAR afii10083
ENCODING 225
SWIDTH 521 0
DWIDTH 8 0
BBX 7 7 1 0
BITMAP
3C
66
C2
C0
C0
E6
7C
ENDCHAR

STARTCHAR afii10084
ENCODING 226
SWIDTH 583 0
DWIDTH 8 0
BBX 8 7 0 0
BITMAP
7E
DB
18
18
18
18
3C
ENDCHAR

STARTCHAR afii10085
ENCODING 227
SWIDTH 542 0
DWIDTH 8 0
BBX 8 10 0 -3
BITMAP
F7
62
62
34
34
18
18
08
D0
60
ENDCHAR

STARTCHAR afii10086
ENCODING 228
SWIDTH 823 0
DWIDTH 12 0
BBX 10 14 1 -3
BITMAP
0C00
1C00
0C00
0C00
6D80
DEC0
CCC0
CCC0
CCC0
DEC0
6D80
0C00
0C00
1E00
ENDCHAR

STARTCHAR afii10087
ENCODING 229
SWIDTH 552 0
DWIDTH 8 0
BBX 8 7 0 0
BITMAP
F7
62
34
18
2C
46
EF
ENDCHAR

STARTCHAR afii10088
ENCODING 230
SWIDTH 615 0
DWIDTH 9 0
BBX 9 9 0 -2
BITMAP
F780
6300
6300
6300
6300
6300
FF80
0180
0080
ENDCHAR

STARTCHAR afii10089
ENCODING 231
SWIDTH 594 0
DWIDTH 8 0
BBX 8 7 0 0
BITMAP
F7
66
66
66
3E
06
0F
ENDCHAR

STARTCHAR afii10090
ENCODING 232
SWIDTH 1022 0
DWIDTH 14 0
BBX 14 7 0 0
BITMAP
F7BC
6318
6318
6318
6318
6318
FFFC
ENDCHAR

STARTCHAR afii10091
ENCODING 233
SWIDTH 1019 0
DWIDTH 14 0
BBX 14 9 0 -2
BITMAP
F7BC
6318
6318
6318
6318
6318
FFFC
000C
0004
ENDCHAR

STARTCHAR afii10092
ENCODING 234
SWIDTH 729 0
DWIDTH 11 0
BBX 11 7 -1 0
BITMAP
7E00
8C00
0C00
0FC0
0C60
0C60
1FC0
ENDCHAR

STARTCHAR afii10093
ENCODING 235
SWIDTH 833 0
DWIDTH 12 0
BBX 12 7 0 0
BITMAP
F0F0
6060
6060
7E60
6360
6360
FEF0
ENDCHAR

STARTCHAR afii10094
ENCODING 236
SWIDTH 563 0
DWIDTH 8 0
BBX 8 7 0 0
BITMAP
F0
60
60
7E
63
63
FE
ENDCHAR

STARTCHAR afii10095
ENCODING 237
SWIDTH 521 0
DWIDTH 8 0
BBX 6 7 1 0
BITMAP
70
C8
0C
3C
0C
C8
70
ENDCHAR

STARTCHAR afii10096
ENCODING 238
SWIDTH 854 0
DWIDTH 13 0
BBX 12 7 0 0
BITMAP
F1C0
6360
6630
7E30
6630
6360
F1C0
ENDCHAR

STARTCHAR afii10097
ENCODING 239
SWIDTH 604 0
DWIDTH 9 0
BBX 9 7 0 0
BITMAP
3F80
6300
6300
3F00
3300
6300
E780
ENDCHAR

STARTCHAR afii61352
ENCODING 240
SWIDTH 1115 0
DWIDTH 17 0
BBX 17 11 -1 0
BITMAP
383000
186800
1C4000
1C4600
164900
135980
135980
11C900
10C600
B0C000
605F80
ENDCHAR

STARTCHAR afii10071
ENCODING 241
SWIDTH 521 0
DWIDTH 8 0
BBX 6 10 1 0
BITMAP
CC
CC
00
38
6C
CC
FC
C0
E4
78
ENDCHAR

STARTCHAR afii10099
ENCODING 242
SWIDTH 594 0
DWIDTH 9 0
BBX 8 14 0 -3
BITMAP
E0
60
FE
60
6E
77
63
63
63
63
F3
03
03
06
ENDCHAR

STARTCHAR afii10100
ENCODING 243
SWIDTH 542 0
DWIDTH 8 0
BBX 7 10 0 0
BITMAP
18
30
00
FE
66
62
60
60
60
F0
ENDCHAR

STARTCHAR afii10101
ENCODING 244
SWIDTH 521 0
DWIDTH 8 0
BBX 6 7 1 0
BITMAP
38
4C
C0
F0
C0
4C
38
ENDCHAR

STARTCHAR afii10102
ENCODING 245
SWIDTH 458 0
DWIDTH 8 0
BBX 6 7 1 0
BITMAP
7C
C4
E0
78
1C
8C
F8
ENDCHAR

STARTCHAR afii10103
ENCODING 246
SWIDTH 333 0
DWIDTH 5 0
BBX 4 11 1 0
BITMAP
60
60
00
00
20
E0
60
60
60
60
F0
ENDCHAR

STARTCHAR afii10104
ENCODING 247
SWIDTH 333 0
DWIDTH 5 0
BBX 6 10 0 0
BITMAP
CC
CC
00
10
70
30
30
30
30
78
ENDCHAR

STARTCHAR afii10105
ENCODING 248
SWIDTH 313 0
DWIDTH 5 0
BBX 3 14 1 -3
BITMAP
60
60
00
00
20
E0
60
60
60
60
60
60
40
80
ENDCHAR

STARTCHAR afii10106
ENCODING 249
SWIDTH 854 0
DWIDTH 13 0
BBX 12 7 0 0
BITMAP
7F00
2600
2600
27E0
2630
A630
CFE0
ENDCHAR

STARTCHAR afii10107
ENCODING 250
SWIDTH 854 0
DWIDTH 14 0
BBX 13 7 0 0
BITMAP
F780
6300
6300
7FF0
6318
6318
F7F0
ENDCHAR

STARTCHAR afii10108
ENCODING 251
SWIDTH 625 0
DWIDTH 9 0
BBX 9 11 0 0
BITMAP
E000
6000
FE00
6000
6E00
7700
6300
6300
6300
6300
F780
ENDCHAR

STARTCHAR afii10109
ENCODING 252
SWIDTH 604 0
DWIDTH 9 0
BBX 8 10 0 0
BITMAP
0C
18
00
F3
65
64
78
6C
66
F3
ENDCHAR

STARTCHAR section
ENCODING 253
SWIDTH 573 0
DWIDTH 8 0
BBX 8 14 0 -3
BITMAP
3E
67
A3
B0
98
4C
66
32
19
0D
05
63
72
3C
ENDCHAR

STARTCHAR afii10110
ENCODING 254
SWIDTH 542 0
DWIDTH 8 0
BBX 8 13 0 -3
BITMAP
36
1C
00
F7
62
62
34
34
18
18
08
D0
60
ENDCHAR

STARTCHAR afii10193
ENCODING 255
SWIDTH 612 0
DWIDTH 9 0
BBX 9 9 0 -2
BITMAP
F780
6300
6300
6300
6300
6300
FF80
1800
1800
ENDCHAR
ENDFONT
